<svg aria-hidden="true" style="position: absolute; width: 0; height: 0; overflow: hidden;" version="1.1" xmlns="http://www.w3.org/2000/svg" xmlns:xlink="http://www.w3.org/1999/xlink">
<defs>
<symbol id="icon-logo" viewBox="0 0 131 32">
<path d="M12.816 18.101h5.33c0.279 0 0.514-0.096 0.706-0.289s0.288-0.43 0.288-0.71c0-0.283-0.096-0.519-0.288-0.71s-0.427-0.286-0.706-0.286h-5.33c-0.282 0-0.518 0.097-0.708 0.291s-0.284 0.432-0.284 0.713 0.095 0.517 0.284 0.707c0.19 0.19 0.426 0.284 0.708 0.284zM12.811 15.142h10.896c0.277 0 0.511-0.097 0.703-0.29s0.288-0.429 0.288-0.71c0-0.283-0.096-0.519-0.288-0.71s-0.426-0.286-0.703-0.286h-10.896c-0.28 0-0.514 0.097-0.704 0.291s-0.284 0.431-0.284 0.713c0 0.282 0.095 0.517 0.284 0.707s0.424 0.284 0.704 0.284zM12.811 12.183h10.896c0.277 0 0.511-0.097 0.703-0.29s0.288-0.43 0.288-0.71c0-0.283-0.096-0.519-0.288-0.71s-0.426-0.286-0.703-0.286h-10.896c-0.28 0-0.514 0.097-0.704 0.291s-0.284 0.432-0.284 0.714c0 0.282 0.095 0.517 0.284 0.707s0.424 0.284 0.704 0.284zM9.319 25.257c-0.591 0-1.103-0.217-1.537-0.651s-0.651-0.946-0.651-1.537v-17.843c0-0.593 0.217-1.107 0.651-1.543s0.946-0.653 1.537-0.653h17.843c0.593 0 1.107 0.218 1.542 0.653s0.653 0.95 0.653 1.543v17.843c0 0.591-0.218 1.103-0.653 1.537s-0.95 0.651-1.542 0.651h-17.843zM9.319 23.069h17.843v-17.843h-17.843v17.843zM5.205 29.379c-0.593 0-1.107-0.218-1.543-0.653s-0.653-0.95-0.653-1.543v-18.937c0-0.309 0.106-0.568 0.317-0.778s0.473-0.315 0.786-0.315c0.313 0 0.573 0.105 0.781 0.315s0.311 0.47 0.311 0.778v18.937h18.937c0.309 0 0.568 0.106 0.778 0.317s0.315 0.474 0.315 0.786c0 0.313-0.105 0.573-0.315 0.781s-0.47 0.311-0.778 0.311h-18.937z"></path>
<path d="M124.717 24.303v-9.168h-2.359v-2.654h2.359v-3.887c0-1.001 0.17-1.823 0.51-2.466 0.357-0.643 0.831-1.126 1.42-1.448s1.26-0.483 2.011-0.483h1.716v2.681h-0.965c-0.447 0-0.787 0.161-1.019 0.483-0.232 0.304-0.349 0.777-0.349 1.421v3.699h2.788v2.654h-2.788v9.168h-3.324z"></path>
<path d="M109.786 24.303v-11.822h3.324v1.662c0.393-0.572 0.903-1.028 1.528-1.367 0.626-0.357 1.341-0.536 2.145-0.536 1.019 0 1.849 0.214 2.493 0.643 0.644 0.411 1.127 1.001 1.448 1.769s0.482 1.68 0.482 2.734v6.916h-3.324v-6.916c0-0.465-0.063-0.876-0.188-1.233s-0.331-0.634-0.617-0.831c-0.286-0.197-0.66-0.295-1.126-0.295-0.607 0-1.126 0.17-1.555 0.509-0.428 0.322-0.751 0.769-0.965 1.34-0.214 0.554-0.322 1.171-0.322 1.85v5.576h-3.324z"></path>
<path d="M101.203 24.518c-1.269 0-2.412-0.25-3.431-0.751-1.018-0.518-1.822-1.242-2.412-2.171s-0.885-2.002-0.885-3.217c0-1.197 0.295-2.252 0.885-3.163 0.59-0.929 1.394-1.662 2.412-2.198s2.163-0.804 3.431-0.804c1.269 0 2.404 0.268 3.404 0.804 1.019 0.536 1.823 1.269 2.413 2.198 0.607 0.912 0.912 1.966 0.912 3.163 0 1.215-0.295 2.288-0.885 3.217s-1.394 1.653-2.413 2.171c-1.018 0.5-2.162 0.751-3.431 0.751zM101.203 21.837c0.733 0 1.341-0.161 1.823-0.483 0.482-0.34 0.84-0.768 1.072-1.287 0.232-0.536 0.348-1.099 0.348-1.689 0-0.608-0.125-1.171-0.375-1.689-0.232-0.536-0.59-0.965-1.072-1.287-0.464-0.34-1.063-0.509-1.796-0.509s-1.34 0.17-1.822 0.509c-0.483 0.322-0.849 0.751-1.1 1.287-0.232 0.518-0.349 1.081-0.349 1.689 0 0.59 0.117 1.153 0.349 1.689 0.232 0.518 0.59 0.947 1.072 1.287 0.501 0.322 1.117 0.483 1.849 0.483z"></path>
<path d="M84.87 24.571c-1.287 0-2.494-0.241-3.619-0.724s-2.118-1.153-2.976-2.011c-0.84-0.876-1.501-1.877-1.984-3.002-0.483-1.144-0.724-2.359-0.724-3.646 0-1.269 0.232-2.466 0.697-3.592 0.483-1.144 1.144-2.145 1.984-3.002 0.858-0.876 1.85-1.555 2.976-2.037 1.126-0.5 2.341-0.751 3.646-0.751 1.34 0 2.591 0.268 3.753 0.804s2.171 1.269 3.029 2.198c0.876 0.911 1.528 1.984 1.957 3.217h-3.673c-0.501-1.001-1.216-1.76-2.145-2.279s-1.939-0.777-3.029-0.777c-0.733 0-1.447 0.152-2.145 0.456s-1.322 0.742-1.876 1.314c-0.554 0.554-1.001 1.215-1.34 1.984-0.322 0.751-0.483 1.573-0.483 2.466 0 0.858 0.152 1.671 0.456 2.439 0.322 0.751 0.751 1.412 1.287 1.984 0.536 0.554 1.162 1.001 1.876 1.34 0.733 0.322 1.511 0.483 2.333 0.483 1.090 0 2.091-0.286 3.002-0.858 0.93-0.59 1.626-1.34 2.091-2.252h3.673c-0.428 1.215-1.081 2.296-1.957 3.244-0.857 0.929-1.876 1.662-3.056 2.198-1.162 0.536-2.413 0.804-3.753 0.804z"></path>
<path d="M66.882 24.571c-1.001 0-1.823-0.214-2.466-0.643-0.643-0.447-1.126-1.054-1.448-1.823-0.304-0.786-0.456-1.68-0.456-2.681v-6.943h3.324v6.943c0 0.465 0.063 0.876 0.188 1.233s0.331 0.634 0.617 0.831c0.286 0.197 0.661 0.295 1.126 0.295 0.643 0 1.171-0.161 1.582-0.483 0.429-0.34 0.742-0.795 0.938-1.367 0.214-0.572 0.322-1.188 0.322-1.85v-5.603h3.324v11.822h-3.324v-1.635c-0.411 0.59-0.929 1.054-1.555 1.394s-1.349 0.509-2.171 0.509z"></path>
<path d="M52.441 24.571c-1.108 0-2.109-0.286-3.002-0.858-0.876-0.572-1.564-1.331-2.064-2.279s-0.751-1.957-0.751-3.029c0-1.090 0.25-2.1 0.751-3.029s1.188-1.689 2.064-2.279c0.894-0.59 1.894-0.885 3.002-0.885 0.822 0 1.599 0.152 2.332 0.456s1.349 0.786 1.85 1.448v-9.919h3.297v20.106h-3.297v-1.608c-0.286 0.411-0.652 0.76-1.099 1.046-0.447 0.268-0.938 0.474-1.474 0.617-0.518 0.143-1.054 0.214-1.608 0.214zM53.352 21.81c0.626 0 1.18-0.161 1.662-0.483 0.5-0.322 0.894-0.742 1.179-1.26s0.429-1.072 0.429-1.662c0-0.608-0.143-1.162-0.429-1.662-0.286-0.518-0.679-0.938-1.179-1.26-0.483-0.322-1.037-0.483-1.662-0.483s-1.179 0.161-1.662 0.483c-0.483 0.322-0.867 0.742-1.153 1.26-0.286 0.5-0.429 1.054-0.429 1.662 0 0.59 0.143 1.144 0.429 1.662s0.67 0.938 1.153 1.26c0.483 0.322 1.037 0.483 1.662 0.483z"></path>
<path d="M34.122 24.303v-18.229h11.179v3.002h-7.881v4.584h7.613v3.029h-7.613v4.611h7.881v3.002h-11.179z"></path>
</symbol>
<symbol id="icon-close" viewBox="0 0 32 32">
<path stroke-linejoin="miter" stroke-linecap="butt" stroke-miterlimit="4" stroke-width="1.3333" d="M23.466 7.9c0.219 0 0.355 0.065 0.462 0.172s0.172 0.242 0.172 0.461c0 0.219-0.065 0.355-0.172 0.462l-7.005 7.005 7.005 7.004c0.107 0.107 0.172 0.243 0.172 0.462s-0.065 0.355-0.172 0.462-0.243 0.172-0.462 0.172c-0.219-0-0.355-0.065-0.462-0.172l-7.004-7.005-7.005 7.005c-0.107 0.107-0.243 0.172-0.462 0.172s-0.354-0.065-0.461-0.172c-0.107-0.107-0.172-0.243-0.172-0.462s0.065-0.355 0.172-0.462l7.004-7.004-7.004-7.005c-0.107-0.107-0.172-0.243-0.172-0.462s0.065-0.354 0.172-0.461 0.242-0.172 0.461-0.172c0.219 0 0.355 0.065 0.462 0.172l7.005 7.004 7.004-7.004c0.107-0.107 0.243-0.172 0.462-0.172z"></path>
</symbol>
<symbol id="icon-menu" viewBox="0 0 32 32">
<path d="M4.936 24.295c-0.321 0-0.59-0.11-0.808-0.329s-0.327-0.493-0.327-0.82c0-0.322 0.109-0.591 0.327-0.807s0.488-0.323 0.808-0.323h22.127c0.321 0 0.591 0.11 0.812 0.329s0.331 0.49 0.331 0.812c0 0.328-0.11 0.599-0.331 0.814s-0.492 0.323-0.812 0.323h-22.127zM4.936 17.136c-0.321 0-0.59-0.11-0.808-0.329s-0.327-0.49-0.327-0.812c0-0.322 0.109-0.591 0.327-0.806s0.488-0.323 0.808-0.323h22.127c0.321 0 0.591 0.11 0.812 0.329s0.331 0.49 0.331 0.812c0 0.322-0.11 0.591-0.331 0.806s-0.492 0.323-0.812 0.323h-22.127zM4.936 9.984c-0.321 0-0.59-0.11-0.808-0.329s-0.327-0.493-0.327-0.82c0-0.322 0.109-0.591 0.327-0.806s0.488-0.323 0.808-0.323h22.127c0.321 0 0.591 0.11 0.812 0.329s0.331 0.49 0.331 0.812c0 0.328-0.11 0.599-0.331 0.815s-0.492 0.323-0.812 0.323h-22.127z"></path>
</symbol>
<symbol id="icon-verified" viewBox="0 0 31 32">
<path d="M14.269 17.431l-2.345-2.451c-0.208-0.228-0.459-0.342-0.755-0.342s-0.557 0.1-0.785 0.301c-0.228 0.231-0.342 0.494-0.342 0.788s0.114 0.556 0.342 0.784l3.097 3.064c0.224 0.227 0.487 0.341 0.789 0.341s0.564-0.114 0.786-0.341l5.905-5.872c0.206-0.201 0.309-0.451 0.309-0.75s-0.114-0.551-0.342-0.758c-0.206-0.179-0.452-0.263-0.737-0.252s-0.517 0.109-0.697 0.293l-5.226 5.193zM10.7 29.038l-2.009-3.438-4.018-0.816c-0.276-0.049-0.505-0.195-0.686-0.439s-0.251-0.504-0.207-0.778l0.457-3.885-2.556-2.983c-0.195-0.202-0.293-0.449-0.293-0.741s0.098-0.537 0.293-0.737l2.556-2.95-0.457-3.885c-0.044-0.274 0.025-0.534 0.207-0.778s0.41-0.393 0.686-0.447l4.020-0.81 2.007-3.469c0.145-0.241 0.355-0.413 0.629-0.514s0.546-0.090 0.817 0.035l3.528 1.65 3.528-1.65c0.271-0.119 0.543-0.135 0.817-0.047s0.483 0.252 0.629 0.494l2.039 3.501 3.988 0.81c0.276 0.054 0.505 0.203 0.686 0.447s0.25 0.504 0.207 0.778l-0.457 3.885 2.556 2.95c0.195 0.202 0.293 0.449 0.293 0.741s-0.098 0.537-0.293 0.737l-2.556 2.983 0.457 3.885c0.044 0.274-0.025 0.534-0.207 0.778s-0.41 0.391-0.686 0.439l-3.985 0.816-2.042 3.47c-0.146 0.242-0.355 0.407-0.629 0.494s-0.546 0.072-0.817-0.047l-3.528-1.65-3.528 1.65c-0.271 0.119-0.543 0.13-0.817 0.031s-0.483-0.269-0.629-0.51zM12.209 27.008l3.464-1.466 3.561 1.466 2.172-3.242 3.789-0.972-0.384-3.864 2.614-2.972-2.614-3.037 0.384-3.863-3.789-0.906-2.235-3.242-3.497 1.465-3.562-1.465-2.17 3.244-3.784 0.901 0.376 3.866-2.614 3.038 2.614 2.973-0.376 3.931 3.782 0.901 2.267 3.244z"></path>
</symbol>


</defs>
</svg>
